<svg id="svg" version="1.1" xmlns="http://www.w3.org/2000/svg" xmlns:xlink="http://www.w3.org/1999/xlink" width="400" height="51.06382978723404" viewBox="0, 0, 400,51.06382978723404"><g id="svgg"><path id="path0" d="M21.208 0.109 C 21.002 0.153,20.833 0.260,20.833 0.345 C 20.833 0.430,20.683 0.500,20.500 0.500 C 20.317 0.500,20.167 0.575,20.167 0.667 C 20.167 0.758,20.060 0.833,19.929 0.833 C 19.798 0.833,19.591 0.927,19.470 1.042 C 19.349 1.156,19.045 1.356,18.794 1.485 C 18.544 1.614,18.191 1.858,18.010 2.027 C 17.829 2.195,17.584 2.334,17.465 2.334 C 17.347 2.334,17.006 2.483,16.708 2.665 C 16.410 2.846,16.167 2.947,16.167 2.889 C 16.167 2.830,16.035 2.931,15.875 3.112 C 15.715 3.293,15.340 3.548,15.042 3.678 C 14.744 3.808,14.500 3.965,14.500 4.027 C 14.500 4.089,14.275 4.190,14.000 4.250 C 13.725 4.310,13.500 4.429,13.500 4.513 C 13.500 4.598,13.387 4.667,13.250 4.667 C 13.112 4.667,13.000 4.742,13.000 4.833 C 13.000 4.925,12.867 5.000,12.703 5.000 C 12.540 5.000,12.299 5.150,12.167 5.333 C 12.035 5.517,11.793 5.667,11.630 5.667 C 11.467 5.667,11.333 5.736,11.333 5.820 C 11.333 5.904,11.116 6.021,10.851 6.080 C 10.585 6.138,10.236 6.331,10.075 6.509 C 9.914 6.688,9.681 6.833,9.558 6.833 C 9.434 6.833,9.333 6.908,9.333 7.000 C 9.333 7.092,9.183 7.167,9.000 7.167 C 8.817 7.167,8.667 7.242,8.667 7.333 C 8.667 7.425,8.512 7.500,8.323 7.500 C 8.135 7.500,8.027 7.576,8.085 7.669 C 8.142 7.762,7.962 7.883,7.678 7.939 C 7.397 7.996,7.167 8.107,7.167 8.188 C 7.167 8.268,7.017 8.333,6.833 8.333 C 6.650 8.333,6.500 8.408,6.500 8.500 C 6.500 8.592,6.415 8.667,6.311 8.667 C 6.207 8.667,6.001 8.807,5.853 8.978 C 5.704 9.149,5.354 9.339,5.074 9.400 C 4.794 9.462,4.459 9.660,4.329 9.839 C 4.199 10.019,3.960 10.167,3.797 10.167 C 3.633 10.167,3.500 10.242,3.500 10.333 C 3.500 10.425,3.346 10.500,3.157 10.500 C 2.968 10.500,2.860 10.575,2.917 10.667 C 2.973 10.758,2.874 10.833,2.697 10.833 C 2.519 10.833,2.281 10.946,2.167 11.083 C 2.053 11.221,1.818 11.333,1.646 11.333 C 1.474 11.333,1.333 11.408,1.333 11.500 C 1.333 11.592,1.221 11.667,1.083 11.667 C 0.946 11.667,0.833 11.724,0.833 11.794 C 0.833 11.864,0.665 11.995,0.458 12.085 L 0.083 12.250 0.041 25.458 C 0.003 37.130,0.027 38.667,0.249 38.667 C 0.387 38.667,0.500 38.742,0.500 38.833 C 0.500 38.925,0.596 39.000,0.713 39.000 C 0.830 39.000,1.035 39.150,1.167 39.333 C 1.299 39.517,1.536 39.667,1.694 39.667 C 1.851 39.667,2.023 39.736,2.075 39.821 C 2.128 39.905,2.380 40.020,2.636 40.077 C 2.892 40.133,3.208 40.326,3.338 40.506 C 3.467 40.686,3.707 40.833,3.870 40.833 C 4.033 40.833,4.167 40.908,4.167 41.000 C 4.167 41.092,4.279 41.167,4.417 41.167 C 4.554 41.167,4.667 41.242,4.667 41.333 C 4.667 41.425,4.811 41.500,4.988 41.500 C 5.165 41.500,5.422 41.613,5.560 41.750 C 5.697 41.888,5.890 42.000,5.988 42.000 C 6.086 42.000,6.167 42.075,6.167 42.167 C 6.167 42.258,6.317 42.333,6.500 42.333 C 6.683 42.333,6.833 42.408,6.833 42.500 C 6.833 42.592,6.949 42.667,7.090 42.667 C 7.232 42.667,7.511 42.820,7.712 43.006 C 7.913 43.193,8.266 43.393,8.497 43.450 C 8.728 43.507,9.038 43.691,9.186 43.860 C 9.334 44.029,9.541 44.167,9.645 44.167 C 9.748 44.167,9.833 44.242,9.833 44.333 C 9.833 44.425,9.983 44.500,10.167 44.500 C 10.350 44.500,10.500 44.575,10.500 44.667 C 10.500 44.758,10.652 44.833,10.839 44.833 C 11.025 44.833,11.220 44.946,11.273 45.083 C 11.326 45.221,11.511 45.333,11.684 45.333 C 11.858 45.333,12.000 45.408,12.000 45.500 C 12.000 45.592,12.150 45.667,12.333 45.667 C 12.517 45.667,12.667 45.742,12.667 45.833 C 12.667 45.925,12.745 46.000,12.840 46.000 C 12.936 46.000,13.171 46.146,13.363 46.325 C 13.555 46.504,13.927 46.697,14.189 46.755 C 14.452 46.813,14.667 46.929,14.667 47.013 C 14.667 47.098,14.800 47.167,14.963 47.167 C 15.126 47.167,15.368 47.317,15.500 47.500 C 15.632 47.683,15.848 47.833,15.979 47.833 C 16.111 47.833,16.464 48.021,16.765 48.250 C 17.065 48.479,17.429 48.667,17.572 48.667 C 17.716 48.667,17.833 48.742,17.833 48.833 C 17.833 48.925,17.946 49.000,18.083 49.000 C 18.221 49.000,18.333 49.075,18.333 49.167 C 18.333 49.258,18.456 49.333,18.605 49.333 C 18.755 49.333,18.999 49.473,19.147 49.644 C 19.296 49.815,19.661 50.009,19.958 50.074 C 20.256 50.140,20.500 50.262,20.500 50.347 C 20.500 50.431,20.618 50.500,20.762 50.500 C 20.906 50.500,21.145 50.621,21.292 50.768 C 21.596 51.072,23.026 51.006,23.133 50.683 C 23.167 50.582,23.338 50.500,23.514 50.500 C 23.690 50.500,23.833 50.430,23.833 50.345 C 23.833 50.259,24.002 50.138,24.208 50.075 C 24.415 50.012,24.715 49.845,24.875 49.704 C 25.035 49.564,25.167 49.509,25.167 49.583 C 25.167 49.657,25.307 49.556,25.478 49.359 C 25.649 49.161,25.912 49.000,26.061 49.000 C 26.211 49.000,26.334 48.944,26.334 48.875 C 26.334 48.806,26.672 48.611,27.084 48.442 C 27.496 48.272,27.833 48.080,27.833 48.015 C 27.833 47.949,28.096 47.793,28.417 47.667 C 28.738 47.541,29.000 47.377,29.000 47.302 C 29.000 47.228,29.154 47.167,29.343 47.167 C 29.532 47.167,29.644 47.098,29.592 47.014 C 29.540 46.929,29.723 46.811,29.999 46.750 C 30.274 46.690,30.500 46.571,30.500 46.487 C 30.500 46.402,30.613 46.333,30.750 46.333 C 30.887 46.333,31.000 46.258,31.000 46.167 C 31.000 46.075,31.133 46.000,31.297 46.000 C 31.460 46.000,31.701 45.850,31.833 45.667 C 31.965 45.483,32.207 45.333,32.370 45.333 C 32.533 45.333,32.667 45.277,32.668 45.208 C 32.669 45.140,33.007 44.935,33.418 44.754 C 33.830 44.573,34.167 44.381,34.167 44.327 C 34.167 44.273,34.429 44.126,34.750 44.000 C 35.071 43.874,35.333 43.723,35.333 43.665 C 35.333 43.606,35.802 43.344,36.375 43.082 C 36.948 42.820,37.538 42.469,37.686 42.303 C 37.834 42.136,38.078 42.000,38.228 42.000 C 38.378 42.000,38.500 41.933,38.500 41.851 C 38.500 41.770,38.688 41.656,38.917 41.598 C 39.146 41.541,39.333 41.420,39.333 41.330 C 39.333 41.240,39.483 41.167,39.667 41.167 C 39.850 41.167,40.000 41.092,40.000 41.000 C 40.000 40.908,40.112 40.833,40.250 40.833 C 40.387 40.833,40.500 40.777,40.500 40.708 C 40.500 40.640,40.987 40.358,41.581 40.083 C 42.176 39.808,42.663 39.536,42.664 39.479 C 42.666 39.421,42.892 39.281,43.167 39.167 C 43.442 39.053,43.667 38.894,43.667 38.813 C 43.667 38.733,43.747 38.667,43.845 38.667 C 44.503 38.667,44.500 38.719,44.500 25.513 L 44.500 12.836 44.137 12.418 C 43.937 12.188,43.674 12.000,43.553 12.000 C 43.432 12.000,43.333 11.925,43.333 11.833 C 43.333 11.742,43.183 11.667,43.000 11.667 C 42.817 11.667,42.666 11.610,42.666 11.542 C 42.664 11.374,41.701 10.833,41.403 10.833 C 41.273 10.833,41.167 10.758,41.167 10.667 C 41.167 10.575,41.035 10.500,40.873 10.500 C 40.712 10.500,40.487 10.350,40.372 10.167 C 40.258 9.983,40.052 9.833,39.915 9.833 C 39.779 9.833,39.667 9.767,39.667 9.685 C 39.667 9.604,39.420 9.491,39.120 9.434 C 38.819 9.378,38.465 9.182,38.333 8.999 C 38.201 8.816,37.960 8.667,37.797 8.667 C 37.633 8.667,37.500 8.592,37.500 8.500 C 37.500 8.408,37.428 8.333,37.341 8.333 C 37.253 8.333,36.905 8.146,36.567 7.917 C 36.230 7.688,35.814 7.500,35.643 7.500 C 35.473 7.500,35.333 7.425,35.333 7.333 C 35.333 7.242,35.221 7.167,35.083 7.167 C 34.946 7.167,34.833 7.106,34.833 7.033 C 34.833 6.877,33.259 6.000,32.979 6.000 C 32.875 6.000,32.668 5.863,32.520 5.696 C 32.371 5.528,32.006 5.285,31.708 5.155 C 31.410 5.025,31.167 4.862,31.167 4.793 C 31.167 4.723,31.017 4.667,30.833 4.667 C 30.650 4.667,30.500 4.593,30.500 4.503 C 30.500 4.413,30.313 4.293,30.083 4.235 C 29.854 4.178,29.667 4.064,29.667 3.982 C 29.667 3.900,29.551 3.833,29.410 3.833 C 29.268 3.833,28.996 3.687,28.804 3.508 C 28.436 3.165,27.494 2.670,27.305 2.720 C 27.244 2.737,27.019 2.592,26.805 2.399 C 26.591 2.206,26.173 1.943,25.875 1.816 C 25.577 1.689,25.333 1.529,25.333 1.459 C 25.333 1.390,25.253 1.333,25.155 1.333 C 25.057 1.333,24.864 1.221,24.726 1.083 C 24.589 0.946,24.332 0.833,24.155 0.833 C 23.978 0.833,23.833 0.758,23.833 0.667 C 23.833 0.575,23.727 0.500,23.597 0.500 C 23.467 0.500,23.336 0.424,23.305 0.330 C 23.241 0.139,21.781 -0.015,21.208 0.109 M25.333 14.167 C 25.333 14.350,25.258 14.500,25.167 14.500 C 25.075 14.500,25.012 14.556,25.027 14.625 C 25.091 14.929,24.778 16.833,24.663 16.833 C 24.543 16.833,24.455 17.262,24.228 18.958 C 24.176 19.348,24.066 19.667,23.983 19.667 C 23.901 19.667,23.833 19.923,23.833 20.236 C 23.833 20.549,23.768 20.831,23.689 20.861 C 23.609 20.892,23.492 21.344,23.428 21.866 L 23.312 22.815 25.739 25.236 C 28.533 28.024,28.364 27.692,27.458 28.602 C 27.069 28.994,26.664 29.401,26.559 29.508 C 26.455 29.615,26.021 30.050,25.595 30.476 C 25.169 30.902,24.757 31.314,24.679 31.393 C 24.494 31.579,23.419 32.653,23.202 32.869 C 23.111 32.961,22.698 33.373,22.286 33.786 C 18.809 37.262,19.000 37.119,19.000 36.250 C 19.000 35.929,19.075 35.667,19.167 35.667 C 19.258 35.667,19.333 35.404,19.333 35.083 C 19.333 34.762,19.400 34.500,19.480 34.500 C 19.561 34.500,19.680 33.938,19.745 33.250 C 19.809 32.563,19.930 32.000,20.014 32.000 C 20.098 32.000,20.167 31.662,20.167 31.250 C 20.167 30.837,20.242 30.500,20.333 30.500 C 20.425 30.500,20.500 30.238,20.500 29.917 C 20.500 29.596,20.575 29.333,20.667 29.333 C 20.758 29.333,20.833 29.035,20.833 28.670 C 20.833 28.072,18.896 25.667,18.415 25.667 C 18.302 25.667,16.824 24.287,16.073 23.481 C 15.846 23.237,16.163 22.873,19.405 19.647 C 21.375 17.687,23.084 15.987,23.202 15.869 C 23.320 15.752,23.663 15.396,23.964 15.078 C 24.265 14.760,24.579 14.500,24.661 14.500 C 24.743 14.500,24.858 14.350,24.917 14.167 C 24.975 13.983,25.092 13.833,25.178 13.833 C 25.263 13.833,25.333 13.983,25.333 14.167 " stroke="none" fill="#7c2ce4" fill-rule="evenodd"></path><path id="path1" d="M59.167 27.167 L 59.167 37.833 65.833 37.833 L 72.500 37.833 72.500 35.833 L 72.500 33.833 67.917 33.833 L 63.333 33.833 63.333 25.167 L 63.333 16.500 61.250 16.500 L 59.167 16.500 59.167 27.167 M75.000 18.500 L 75.000 20.500 76.917 20.500 L 78.833 20.500 78.833 18.500 L 78.833 16.500 76.917 16.500 L 75.000 16.500 75.000 18.500 M99.000 27.167 L 99.000 37.833 100.917 37.833 L 102.833 37.833 102.833 33.250 C 102.833 30.306,102.893 28.667,103.000 28.667 C 103.092 28.667,103.167 28.479,103.167 28.250 C 103.167 28.021,103.242 27.833,103.333 27.833 C 103.425 27.833,103.500 27.715,103.500 27.571 C 103.500 27.279,103.887 26.833,104.141 26.833 C 104.231 26.833,104.337 26.740,104.375 26.625 C 104.423 26.482,104.840 26.419,105.706 26.423 C 107.101 26.431,108.000 27.023,108.000 27.934 C 108.000 28.154,108.075 28.333,108.167 28.333 C 108.274 28.333,108.333 30.028,108.333 33.083 L 108.333 37.833 110.262 37.833 C 111.711 37.833,112.250 37.774,112.429 37.595 C 112.720 37.304,112.789 28.167,112.500 28.167 C 112.408 28.167,112.333 27.754,112.333 27.250 C 112.333 26.746,112.258 26.333,112.167 26.333 C 112.075 26.333,112.000 26.108,112.000 25.833 C 112.000 25.558,111.925 25.333,111.833 25.333 C 111.742 25.333,111.667 25.255,111.667 25.160 C 111.667 24.720,110.119 23.219,109.533 23.091 C 109.240 23.026,109.000 22.904,109.000 22.820 C 109.000 22.736,108.662 22.667,108.250 22.667 C 107.837 22.667,107.500 22.592,107.500 22.500 C 107.500 22.408,107.087 22.333,106.583 22.333 C 106.079 22.333,105.667 22.408,105.667 22.500 C 105.667 22.592,105.367 22.667,105.000 22.667 C 104.633 22.667,104.333 22.742,104.333 22.833 C 104.333 22.925,104.151 23.000,103.929 23.000 C 103.706 23.000,103.411 23.113,103.274 23.250 C 103.136 23.387,102.981 23.500,102.929 23.500 C 102.876 23.500,102.833 21.925,102.833 20.000 L 102.833 16.500 100.917 16.500 L 99.000 16.500 99.000 27.167 M143.333 18.500 L 143.333 20.500 145.333 20.500 L 147.333 20.500 147.333 18.500 L 147.333 16.500 145.333 16.500 L 143.333 16.500 143.333 18.500 M193.500 19.417 L 193.500 21.333 197.167 21.333 L 200.833 21.333 200.833 30.333 L 200.833 39.333 202.917 39.333 L 205.000 39.333 205.000 30.333 L 205.000 21.333 208.500 21.333 L 212.000 21.333 212.000 19.417 L 212.000 17.500 202.750 17.500 L 193.500 17.500 193.500 19.417 M275.167 17.645 C 275.167 17.725,274.827 17.828,274.412 17.875 C 273.928 17.930,273.547 18.087,273.351 18.313 C 273.182 18.508,272.954 18.667,272.844 18.667 C 272.614 18.667,272.286 18.966,272.114 19.333 C 272.049 19.471,271.853 19.808,271.677 20.083 C 271.499 20.361,271.352 20.898,271.346 21.292 C 271.339 21.681,271.258 22.000,271.167 22.000 C 271.075 22.000,271.000 22.412,271.000 22.917 L 271.000 23.833 270.321 23.833 C 269.464 23.833,269.167 24.131,269.167 24.988 C 269.167 25.361,269.092 25.667,269.000 25.667 C 268.908 25.667,268.833 26.079,268.833 26.583 L 268.833 27.500 269.917 27.500 L 271.000 27.500 271.000 33.417 L 271.000 39.333 273.083 39.333 L 275.167 39.333 275.167 33.417 L 275.167 27.500 276.833 27.500 L 278.500 27.500 278.500 25.667 L 278.500 23.833 276.833 23.833 L 275.167 23.833 275.167 22.917 C 275.167 22.412,275.242 22.000,275.333 22.000 C 275.425 22.000,275.500 21.859,275.500 21.688 C 275.500 21.316,276.078 21.167,277.521 21.167 L 278.500 21.167 278.500 19.333 L 278.500 17.500 276.833 17.500 C 275.917 17.500,275.167 17.565,275.167 17.645 M119.375 17.951 C 119.169 17.991,119.000 18.093,119.000 18.178 C 119.000 18.264,118.813 18.333,118.583 18.333 C 118.354 18.333,118.167 18.408,118.167 18.500 C 118.167 18.592,117.942 18.667,117.667 18.667 C 117.392 18.667,117.167 18.742,117.167 18.833 C 117.167 18.925,117.017 19.000,116.833 19.000 C 116.520 19.000,116.500 19.111,116.500 20.833 L 116.500 22.667 115.000 22.667 L 113.500 22.667 113.500 24.500 L 113.500 26.333 114.904 26.333 L 116.308 26.333 116.362 30.611 C 116.403 33.846,116.467 34.906,116.625 34.958 C 116.740 34.997,116.833 35.141,116.833 35.280 C 116.833 35.539,117.758 36.500,118.006 36.500 C 118.082 36.500,118.192 36.650,118.250 36.833 C 118.308 37.017,118.501 37.167,118.678 37.167 C 118.855 37.167,119.000 37.242,119.000 37.333 C 119.000 37.425,119.263 37.500,119.583 37.500 C 119.904 37.500,120.167 37.575,120.167 37.667 C 120.167 37.768,120.889 37.833,122.000 37.833 L 123.833 37.833 123.833 36.000 L 123.833 34.167 122.750 34.167 C 122.139 34.167,121.667 34.094,121.667 34.000 C 121.667 33.908,121.592 33.833,121.501 33.833 C 121.410 33.833,121.148 33.670,120.918 33.470 L 120.500 33.107 120.500 29.720 L 120.500 26.333 122.333 26.333 L 124.167 26.333 124.167 24.500 L 124.167 22.667 122.333 22.667 L 120.500 22.667 120.500 20.351 C 120.500 18.034,120.425 17.741,119.861 17.856 C 119.800 17.869,119.581 17.911,119.375 17.951 M87.333 22.500 C 87.333 22.592,87.071 22.667,86.750 22.667 C 86.429 22.667,86.167 22.732,86.167 22.812 C 86.167 22.892,85.883 23.003,85.535 23.058 C 85.188 23.114,84.741 23.311,84.542 23.496 C 84.343 23.682,84.121 23.834,84.049 23.835 C 83.976 23.836,83.662 24.099,83.352 24.418 C 83.041 24.738,82.722 25.000,82.643 25.000 C 82.564 25.000,82.500 25.150,82.500 25.333 C 82.500 25.517,82.426 25.667,82.337 25.667 C 82.247 25.667,82.126 25.854,82.068 26.083 C 82.011 26.313,81.897 26.500,81.815 26.500 C 81.734 26.500,81.667 26.725,81.667 27.000 C 81.667 27.275,81.592 27.500,81.500 27.500 C 81.408 27.500,81.333 27.683,81.333 27.907 C 81.333 28.131,81.258 28.360,81.167 28.417 C 81.075 28.473,81.000 29.148,81.000 29.917 C 81.000 30.685,81.075 31.360,81.167 31.417 C 81.258 31.473,81.333 31.778,81.333 32.093 C 81.333 32.409,81.408 32.667,81.500 32.667 C 81.592 32.667,81.667 32.791,81.667 32.944 C 81.667 33.318,82.197 34.500,82.365 34.500 C 82.439 34.500,82.500 34.574,82.500 34.664 C 82.500 34.933,83.887 36.283,84.292 36.407 C 84.498 36.471,84.667 36.592,84.667 36.678 C 84.667 36.763,84.817 36.833,85.000 36.833 C 85.183 36.833,85.333 36.908,85.333 37.000 C 85.333 37.092,85.521 37.167,85.750 37.167 C 85.979 37.167,86.167 37.242,86.167 37.333 C 86.167 37.425,86.579 37.500,87.083 37.500 C 87.587 37.500,88.000 37.575,88.000 37.667 C 88.000 37.758,88.263 37.833,88.583 37.833 C 88.904 37.833,89.167 37.758,89.167 37.667 C 89.167 37.575,89.504 37.500,89.917 37.500 C 90.329 37.500,90.667 37.425,90.667 37.333 C 90.667 37.242,90.864 37.167,91.105 37.167 C 91.352 37.167,91.686 37.004,91.866 36.795 L 92.188 36.424 92.069 37.325 C 91.952 38.207,90.873 39.667,90.338 39.667 C 90.244 39.667,90.167 39.742,90.167 39.833 C 90.167 39.930,89.639 40.000,88.917 40.000 C 88.194 40.000,87.667 39.930,87.667 39.833 C 87.667 39.742,87.517 39.667,87.333 39.667 C 87.150 39.667,87.000 39.592,87.000 39.500 C 87.000 39.408,86.920 39.333,86.821 39.333 C 86.617 39.333,86.333 39.049,86.065 38.576 C 85.805 38.115,81.667 37.979,81.667 38.431 C 81.667 38.807,82.221 40.404,82.375 40.472 C 82.444 40.503,82.500 40.696,82.500 40.900 C 82.500 41.243,83.164 42.000,83.464 42.000 C 83.535 42.000,83.701 42.150,83.833 42.333 C 83.965 42.517,84.207 42.667,84.370 42.667 C 84.533 42.667,84.667 42.742,84.667 42.833 C 84.667 42.925,84.810 43.000,84.986 43.000 C 85.162 43.000,85.331 43.076,85.362 43.169 C 85.393 43.262,85.924 43.385,86.542 43.443 C 87.161 43.501,87.667 43.612,87.667 43.691 C 87.667 43.769,88.267 43.833,89.000 43.833 C 89.778 43.833,90.333 43.764,90.333 43.667 C 90.333 43.575,90.669 43.500,91.080 43.500 C 91.860 43.500,93.167 43.071,93.167 42.815 C 93.167 42.734,93.317 42.667,93.500 42.667 C 93.683 42.667,93.833 42.595,93.833 42.508 C 93.833 42.328,94.440 41.707,94.977 41.338 C 95.173 41.203,95.333 40.966,95.333 40.810 C 95.333 40.655,95.413 40.501,95.511 40.469 C 95.608 40.436,95.731 40.092,95.783 39.705 C 95.835 39.317,95.942 39.000,96.022 39.000 C 96.102 39.000,96.167 35.341,96.167 30.833 L 96.167 22.667 94.264 22.667 L 92.361 22.667 92.194 23.125 C 92.102 23.377,92.020 23.496,92.013 23.390 C 92.006 23.283,91.700 23.145,91.333 23.083 C 90.967 23.021,90.667 22.902,90.667 22.819 C 90.667 22.735,90.404 22.667,90.083 22.667 C 89.763 22.667,89.500 22.592,89.500 22.500 C 89.500 22.406,89.028 22.333,88.417 22.333 C 87.806 22.333,87.333 22.406,87.333 22.500 M172.500 22.500 C 172.500 22.592,172.237 22.667,171.917 22.667 C 171.596 22.667,171.333 22.732,171.333 22.811 C 171.333 22.891,171.016 22.999,170.629 23.051 C 170.241 23.103,169.897 23.225,169.865 23.323 C 169.832 23.420,169.697 23.500,169.564 23.500 C 169.240 23.500,167.333 25.416,167.333 25.742 C 167.333 25.884,167.258 26.000,167.167 26.000 C 167.075 26.000,167.000 26.113,167.000 26.250 C 167.000 26.387,166.942 26.500,166.870 26.500 C 166.029 26.500,166.001 33.178,166.841 33.472 C 166.929 33.503,167.000 33.672,167.000 33.847 C 167.000 34.023,167.075 34.167,167.167 34.167 C 167.258 34.167,167.333 34.244,167.333 34.339 C 167.333 34.434,167.502 34.698,167.708 34.925 C 168.853 36.188,169.209 36.500,169.506 36.500 C 169.686 36.500,169.833 36.575,169.833 36.667 C 169.833 36.758,169.946 36.833,170.083 36.833 C 170.221 36.833,170.333 36.908,170.333 37.000 C 170.333 37.092,170.558 37.167,170.833 37.167 C 171.108 37.167,171.333 37.242,171.333 37.333 C 171.333 37.425,171.746 37.500,172.250 37.500 C 172.754 37.500,173.167 37.575,173.167 37.667 C 173.167 37.758,173.354 37.833,173.583 37.833 C 173.813 37.833,174.000 37.758,174.000 37.667 C 174.000 37.575,174.412 37.500,174.917 37.500 C 175.421 37.500,175.833 37.425,175.833 37.333 C 175.833 37.242,175.983 37.167,176.167 37.167 C 176.350 37.167,176.500 37.092,176.500 37.000 C 176.500 36.908,176.612 36.833,176.750 36.833 C 177.104 36.833,177.079 37.979,176.713 38.505 C 176.249 39.172,175.700 39.667,175.424 39.667 C 175.283 39.667,175.167 39.742,175.167 39.833 C 175.167 39.929,174.667 40.000,174.000 40.000 C 173.333 40.000,172.833 39.929,172.833 39.833 C 172.833 39.742,172.625 39.667,172.370 39.667 C 172.086 39.667,171.812 39.530,171.662 39.313 C 171.527 39.118,171.323 38.861,171.208 38.741 C 171.094 38.622,171.000 38.443,171.000 38.345 C 171.000 38.227,170.263 38.167,168.833 38.167 L 166.667 38.167 166.667 38.578 C 166.667 38.805,166.817 39.257,167.000 39.583 C 167.183 39.910,167.333 40.325,167.333 40.505 C 167.333 40.686,167.408 40.833,167.500 40.833 C 167.592 40.833,167.667 40.943,167.667 41.078 C 167.667 41.403,168.588 42.333,168.911 42.333 C 169.052 42.333,169.167 42.408,169.167 42.500 C 169.167 42.592,169.317 42.667,169.500 42.667 C 169.683 42.667,169.834 42.723,169.835 42.792 C 169.837 43.038,170.768 43.350,171.792 43.448 C 172.365 43.503,172.833 43.612,172.833 43.691 C 172.833 43.769,173.358 43.833,174.000 43.833 C 174.642 43.833,175.167 43.768,175.167 43.689 C 175.167 43.610,175.700 43.507,176.352 43.460 C 177.004 43.413,177.586 43.309,177.644 43.229 C 177.702 43.149,177.972 42.970,178.243 42.833 C 178.952 42.475,180.333 41.120,180.333 40.785 C 180.333 40.628,180.408 40.500,180.500 40.500 C 180.592 40.500,180.667 40.313,180.667 40.083 C 180.667 39.854,180.742 39.667,180.833 39.667 C 180.925 39.667,181.000 39.442,181.000 39.167 C 181.000 38.892,181.075 38.667,181.167 38.667 C 181.275 38.667,181.333 35.889,181.333 30.667 L 181.333 22.667 179.167 22.667 C 177.303 22.667,177.000 22.704,177.000 22.930 C 177.000 23.216,175.974 23.110,175.861 22.813 C 175.831 22.733,175.549 22.667,175.236 22.667 C 174.923 22.667,174.667 22.592,174.667 22.500 C 174.667 22.406,174.194 22.333,173.583 22.333 C 172.972 22.333,172.500 22.406,172.500 22.500 M75.000 30.250 L 75.000 37.833 76.917 37.833 L 78.833 37.833 78.833 30.250 L 78.833 22.667 76.917 22.667 L 75.000 22.667 75.000 30.250 M130.167 24.500 L 130.167 26.333 128.417 26.333 L 126.667 26.333 126.667 32.083 L 126.667 37.833 128.750 37.833 L 130.833 37.833 130.833 32.333 L 130.833 26.833 132.500 26.833 C 133.500 26.833,134.167 26.900,134.167 27.000 C 134.167 27.092,134.282 27.167,134.423 27.167 C 134.857 27.167,136.000 28.425,136.000 28.904 C 136.000 29.140,136.075 29.333,136.167 29.333 C 136.273 29.333,136.333 30.861,136.333 33.583 L 136.333 37.833 138.333 37.833 L 140.333 37.833 140.333 32.500 C 140.333 29.056,140.274 27.167,140.167 27.167 C 140.075 27.167,140.000 26.979,140.000 26.750 C 140.000 26.521,139.925 26.333,139.833 26.333 C 139.742 26.333,139.667 26.200,139.667 26.037 C 139.667 25.874,139.517 25.632,139.333 25.500 C 139.150 25.368,138.999 25.183,138.997 25.088 C 138.993 24.794,138.053 23.833,137.770 23.833 C 137.621 23.833,137.500 23.776,137.500 23.706 C 137.500 23.515,136.224 23.000,135.749 23.000 C 135.520 23.000,135.333 22.925,135.333 22.833 C 135.333 22.729,134.361 22.667,132.750 22.667 L 130.167 22.667 130.167 24.500 M143.333 30.255 L 143.333 37.844 145.292 37.797 L 147.250 37.750 147.293 30.208 L 147.337 22.667 145.335 22.667 L 143.333 22.667 143.333 30.255 M154.000 24.500 L 154.000 26.333 152.333 26.333 L 150.667 26.333 150.667 32.083 L 150.667 37.833 152.583 37.833 L 154.500 37.833 154.500 32.333 L 154.500 26.833 156.333 26.833 C 157.444 26.833,158.167 26.899,158.167 27.000 C 158.167 27.092,158.280 27.167,158.418 27.167 C 158.762 27.167,159.667 28.056,159.667 28.393 C 159.667 28.544,159.742 28.667,159.833 28.667 C 159.940 28.667,160.000 30.306,160.000 33.250 L 160.000 37.833 162.167 37.833 L 164.333 37.833 164.333 32.833 C 164.333 29.611,164.274 27.833,164.167 27.833 C 164.075 27.833,164.000 27.623,164.000 27.367 C 164.000 26.860,163.660 26.003,163.458 26.001 C 163.390 26.001,163.333 25.877,163.333 25.728 C 163.333 24.956,160.716 23.000,159.683 23.000 C 159.399 23.000,159.167 22.925,159.167 22.833 C 159.167 22.729,158.194 22.667,156.583 22.667 L 154.000 22.667 154.000 24.500 M228.167 23.667 C 228.167 23.761,227.694 23.833,227.083 23.833 C 226.472 23.833,226.000 23.906,226.000 24.000 C 226.000 24.092,225.813 24.167,225.583 24.167 C 225.354 24.167,225.167 24.242,225.167 24.333 C 225.167 24.425,225.022 24.500,224.845 24.500 C 224.668 24.500,224.411 24.613,224.274 24.750 C 224.136 24.887,223.962 25.000,223.886 25.000 C 223.700 25.000,222.667 26.135,222.667 26.339 C 222.667 26.428,222.592 26.500,222.500 26.500 C 222.408 26.500,222.333 26.650,222.333 26.833 C 222.333 27.017,222.258 27.167,222.167 27.167 C 222.075 27.167,222.000 27.310,222.000 27.486 C 222.000 27.662,221.920 27.832,221.823 27.865 C 221.725 27.897,221.603 28.241,221.551 28.629 L 221.456 29.333 223.561 29.333 C 225.346 29.333,225.667 29.294,225.667 29.077 C 225.667 28.617,226.964 27.500,227.497 27.500 C 227.763 27.500,228.027 27.425,228.083 27.333 C 228.140 27.242,228.369 27.167,228.593 27.167 C 228.817 27.167,229.000 27.242,229.000 27.333 C 229.000 27.425,229.225 27.500,229.500 27.500 C 229.775 27.500,230.000 27.567,230.000 27.649 C 230.000 27.730,230.188 27.844,230.417 27.902 C 230.686 27.969,230.833 28.123,230.833 28.337 C 230.833 28.518,230.908 28.667,231.000 28.667 C 231.092 28.667,231.167 28.883,231.167 29.146 L 231.167 29.626 228.053 29.696 C 225.830 29.746,224.920 29.824,224.872 29.966 C 224.836 30.077,224.587 30.167,224.319 30.167 C 224.052 30.167,223.833 30.242,223.833 30.333 C 223.833 30.425,223.721 30.500,223.583 30.500 C 223.446 30.500,223.333 30.575,223.333 30.667 C 223.333 30.758,223.223 30.833,223.089 30.833 C 222.609 30.833,221.664 31.888,221.558 32.542 C 221.503 32.885,221.392 33.167,221.312 33.167 C 221.232 33.167,221.167 33.804,221.167 34.583 C 221.167 35.362,221.232 36.000,221.312 36.000 C 221.392 36.000,221.504 36.290,221.561 36.646 C 221.675 37.359,222.524 38.333,223.032 38.333 C 223.198 38.333,223.333 38.408,223.333 38.500 C 223.333 38.592,223.446 38.667,223.583 38.667 C 223.721 38.667,223.833 38.742,223.833 38.833 C 223.833 38.925,223.983 39.000,224.167 39.000 C 224.350 39.000,224.500 39.075,224.500 39.167 C 224.500 39.258,224.758 39.333,225.073 39.333 C 225.389 39.333,225.693 39.408,225.750 39.500 C 225.807 39.592,226.486 39.667,227.260 39.667 C 228.087 39.667,228.667 39.598,228.667 39.500 C 228.667 39.408,228.877 39.333,229.133 39.333 C 229.640 39.333,230.497 38.993,230.499 38.792 C 230.499 38.723,230.650 38.667,230.833 38.667 C 231.056 38.667,231.167 38.778,231.167 39.000 C 231.167 39.315,231.278 39.333,233.167 39.333 L 235.167 39.333 235.167 33.583 C 235.167 29.861,235.108 27.833,235.000 27.833 C 234.908 27.833,234.833 27.608,234.833 27.333 C 234.833 27.058,234.758 26.833,234.667 26.833 C 234.575 26.833,234.500 26.737,234.500 26.620 C 234.500 26.503,234.350 26.299,234.167 26.167 C 233.983 26.035,233.833 25.825,233.833 25.701 C 233.833 25.471,233.442 25.000,233.250 25.000 C 233.191 25.000,233.030 24.887,232.893 24.750 C 232.755 24.613,232.498 24.500,232.321 24.500 C 232.145 24.500,232.000 24.425,232.000 24.333 C 232.000 24.242,231.813 24.167,231.583 24.167 C 231.354 24.167,231.167 24.092,231.167 24.000 C 231.167 23.906,230.694 23.833,230.083 23.833 C 229.472 23.833,229.000 23.761,229.000 23.667 C 229.000 23.575,228.813 23.500,228.583 23.500 C 228.354 23.500,228.167 23.575,228.167 23.667 M245.833 23.667 C 245.833 23.758,245.458 23.833,245.000 23.833 C 244.542 23.833,244.167 23.908,244.167 24.000 C 244.167 24.092,243.979 24.167,243.750 24.167 C 243.521 24.167,243.333 24.234,243.333 24.317 C 243.333 24.400,243.108 24.546,242.833 24.642 C 242.351 24.810,242.333 24.798,242.333 24.325 L 242.333 23.833 240.417 23.833 L 238.500 23.833 238.500 31.583 L 238.500 39.333 240.417 39.333 L 242.333 39.333 242.333 34.583 C 242.333 31.528,242.393 29.833,242.500 29.833 C 242.592 29.833,242.667 29.677,242.667 29.487 C 242.667 29.102,243.892 27.833,244.264 27.833 C 244.394 27.833,244.500 27.758,244.500 27.667 C 244.500 27.575,244.912 27.500,245.417 27.500 C 245.921 27.500,246.333 27.575,246.333 27.667 C 246.333 27.758,246.480 27.833,246.660 27.833 C 246.959 27.833,247.091 27.936,247.583 28.554 C 248.141 29.253,248.167 29.511,248.167 34.419 L 248.167 39.343 250.292 39.297 L 252.417 39.250 252.461 34.261 C 252.489 31.048,252.445 29.211,252.336 29.103 C 252.243 29.009,252.167 28.611,252.167 28.217 C 252.167 27.822,252.092 27.500,252.000 27.500 C 251.908 27.500,251.833 27.313,251.833 27.085 C 251.833 26.850,251.688 26.579,251.500 26.461 C 251.317 26.347,251.167 26.121,251.167 25.960 C 251.167 25.799,251.097 25.667,251.011 25.667 C 250.926 25.667,250.809 25.520,250.753 25.342 C 250.696 25.163,250.353 24.886,249.991 24.726 C 249.629 24.567,249.333 24.375,249.333 24.301 C 249.333 24.227,249.146 24.167,248.917 24.167 C 248.688 24.167,248.500 24.092,248.500 24.000 C 248.500 23.908,248.088 23.833,247.583 23.833 C 247.079 23.833,246.667 23.758,246.667 23.667 C 246.667 23.575,246.479 23.500,246.250 23.500 C 246.021 23.500,245.833 23.575,245.833 23.667 M260.333 23.667 C 260.333 23.758,259.921 23.833,259.417 23.833 C 258.912 23.833,258.500 23.908,258.500 24.000 C 258.500 24.092,258.313 24.167,258.083 24.167 C 257.854 24.167,257.667 24.242,257.667 24.333 C 257.667 24.425,257.532 24.500,257.368 24.500 C 257.093 24.500,256.489 25.020,255.542 26.072 C 255.335 26.301,255.167 26.641,255.167 26.827 C 255.167 27.014,255.092 27.167,255.000 27.167 C 254.901 27.167,254.833 27.778,254.833 28.667 C 254.833 29.556,254.901 30.167,255.000 30.167 C 255.092 30.167,255.167 30.317,255.167 30.500 C 255.167 30.683,255.242 30.833,255.333 30.833 C 255.425 30.833,255.500 30.932,255.500 31.053 C 255.500 31.279,256.234 32.000,256.464 32.000 C 256.535 32.000,256.701 32.150,256.833 32.333 C 256.965 32.517,257.230 32.667,257.420 32.667 C 257.611 32.667,257.843 32.743,257.937 32.837 C 258.030 32.930,258.608 33.054,259.220 33.111 C 259.832 33.168,260.333 33.279,260.333 33.357 C 260.333 33.436,260.746 33.500,261.250 33.500 C 261.754 33.500,262.167 33.575,262.167 33.667 C 262.167 33.758,262.302 33.833,262.467 33.833 C 262.907 33.833,263.664 34.219,263.665 34.444 C 263.666 34.551,263.758 34.669,263.870 34.707 C 264.097 34.782,263.302 35.667,263.008 35.667 C 262.912 35.667,262.833 35.742,262.833 35.833 C 262.833 35.927,262.361 36.000,261.750 36.000 C 261.139 36.000,260.667 35.927,260.667 35.833 C 260.667 35.742,260.479 35.667,260.250 35.667 C 259.787 35.667,258.500 34.502,258.500 34.083 C 258.500 33.875,258.167 33.833,256.500 33.833 L 254.500 33.833 254.500 34.417 C 254.500 34.737,254.575 35.000,254.667 35.000 C 254.758 35.000,254.833 35.150,254.833 35.333 C 254.833 35.517,254.908 35.667,255.000 35.667 C 255.092 35.667,255.167 35.854,255.167 36.083 C 255.167 36.313,255.242 36.500,255.333 36.500 C 255.425 36.500,255.500 36.616,255.500 36.757 C 255.500 37.130,256.666 38.333,257.027 38.333 C 257.195 38.333,257.334 38.390,257.335 38.458 C 257.336 38.627,258.161 39.000,258.533 39.000 C 258.698 39.000,258.833 39.075,258.833 39.167 C 258.833 39.258,259.091 39.333,259.407 39.333 C 259.722 39.333,260.027 39.408,260.083 39.500 C 260.140 39.592,260.740 39.667,261.417 39.667 C 262.093 39.667,262.693 39.592,262.750 39.500 C 262.807 39.408,263.096 39.333,263.393 39.333 C 263.960 39.333,264.830 39.006,264.832 38.792 C 264.833 38.723,264.983 38.667,265.167 38.667 C 265.350 38.667,265.500 38.592,265.500 38.500 C 265.500 38.408,265.623 38.333,265.774 38.333 C 266.111 38.333,267.000 37.428,267.000 37.085 C 267.000 36.947,267.075 36.833,267.167 36.833 C 267.258 36.833,267.333 36.721,267.333 36.583 C 267.333 36.446,267.408 36.333,267.500 36.333 C 267.601 36.333,267.667 35.611,267.667 34.500 C 267.667 33.389,267.601 32.667,267.500 32.667 C 267.408 32.667,267.333 32.533,267.333 32.370 C 267.333 32.207,267.174 31.963,266.980 31.828 C 266.785 31.694,266.528 31.490,266.408 31.375 C 266.288 31.260,266.127 31.167,266.049 31.167 C 265.971 31.167,265.799 31.017,265.667 30.833 C 265.535 30.650,265.260 30.500,265.056 30.500 C 264.853 30.500,264.640 30.425,264.583 30.333 C 264.527 30.242,264.302 30.167,264.083 30.167 C 263.865 30.167,263.646 30.101,263.596 30.020 C 263.546 29.939,262.791 29.820,261.919 29.754 C 261.047 29.689,260.333 29.568,260.333 29.484 C 260.333 29.401,260.105 29.333,259.826 29.333 C 259.280 29.333,258.244 28.502,258.630 28.373 C 258.742 28.336,258.833 28.231,258.833 28.141 C 258.833 27.859,259.293 27.500,259.655 27.500 C 259.845 27.500,260.000 27.425,260.000 27.333 C 260.000 27.242,260.333 27.167,260.740 27.167 C 261.147 27.167,261.527 27.242,261.583 27.333 C 261.640 27.425,261.869 27.500,262.093 27.500 C 262.317 27.500,262.500 27.567,262.500 27.649 C 262.500 27.730,262.688 27.844,262.917 27.902 C 263.186 27.969,263.333 28.123,263.333 28.337 C 263.333 28.518,263.408 28.667,263.500 28.667 C 263.592 28.667,263.667 28.817,263.667 29.000 C 263.667 29.315,263.778 29.333,265.667 29.333 L 267.667 29.333 267.667 28.750 C 267.667 28.429,267.592 28.167,267.500 28.167 C 267.408 28.167,267.333 28.017,267.333 27.833 C 267.333 27.650,267.258 27.500,267.167 27.500 C 267.075 27.500,267.000 27.350,267.000 27.167 C 267.000 26.983,266.925 26.833,266.833 26.833 C 266.742 26.833,266.667 26.678,266.667 26.488 C 266.667 26.298,266.573 26.045,266.458 25.925 C 266.344 25.805,266.140 25.548,266.005 25.354 C 265.870 25.159,265.626 25.000,265.463 25.000 C 265.300 25.000,265.167 24.926,265.167 24.837 C 265.167 24.747,264.979 24.626,264.750 24.568 C 264.521 24.511,264.333 24.397,264.333 24.315 C 264.333 24.234,264.108 24.167,263.833 24.167 C 263.558 24.167,263.333 24.092,263.333 24.000 C 263.333 23.908,262.921 23.833,262.417 23.833 C 261.912 23.833,261.500 23.758,261.500 23.667 C 261.500 23.575,261.237 23.500,260.917 23.500 C 260.596 23.500,260.333 23.575,260.333 23.667 M286.500 23.667 C 286.500 23.761,286.028 23.833,285.417 23.833 C 284.806 23.833,284.333 23.906,284.333 24.000 C 284.333 24.092,284.146 24.167,283.917 24.167 C 283.688 24.167,283.500 24.233,283.500 24.315 C 283.500 24.396,283.236 24.512,282.913 24.573 C 282.590 24.634,282.234 24.829,282.123 25.008 C 282.011 25.187,281.823 25.333,281.704 25.333 C 281.411 25.333,280.398 26.366,280.258 26.809 C 280.195 27.006,280.074 27.167,279.989 27.167 C 279.903 27.167,279.833 27.317,279.833 27.500 C 279.833 27.683,279.758 27.833,279.667 27.833 C 279.575 27.833,279.500 27.946,279.500 28.083 C 279.500 28.221,279.425 28.333,279.333 28.333 C 279.242 28.333,279.167 28.558,279.167 28.833 C 279.167 29.108,279.092 29.333,279.000 29.333 C 278.908 29.333,278.833 29.634,278.833 30.002 C 278.833 30.370,278.745 30.812,278.637 30.985 C 278.413 31.344,278.750 34.167,279.017 34.167 C 279.099 34.167,279.167 34.354,279.167 34.583 C 279.167 34.813,279.242 35.000,279.333 35.000 C 279.425 35.000,279.500 35.150,279.500 35.333 C 279.500 35.517,279.559 35.667,279.631 35.667 C 279.703 35.667,279.903 35.907,280.077 36.200 C 280.498 36.914,281.701 38.102,282.144 38.243 C 282.340 38.305,282.500 38.426,282.500 38.511 C 282.500 38.597,282.725 38.667,283.000 38.667 C 283.275 38.667,283.500 38.742,283.500 38.833 C 283.500 38.925,283.612 39.000,283.750 39.000 C 283.887 39.000,284.000 39.075,284.000 39.167 C 284.000 39.258,284.333 39.333,284.740 39.333 C 285.147 39.333,285.527 39.408,285.583 39.500 C 285.640 39.592,286.207 39.667,286.843 39.667 C 287.503 39.667,288.000 39.595,288.000 39.500 C 288.000 39.408,288.337 39.333,288.750 39.333 C 289.162 39.333,289.500 39.258,289.500 39.167 C 289.500 39.075,289.688 39.000,289.917 39.000 C 290.146 39.000,290.333 38.925,290.333 38.833 C 290.333 38.742,290.483 38.667,290.667 38.667 C 290.850 38.667,291.000 38.597,291.000 38.511 C 291.000 38.426,291.169 38.303,291.375 38.239 C 291.716 38.133,293.500 36.450,293.500 36.234 C 293.500 36.184,293.612 36.030,293.750 35.893 C 293.887 35.755,294.000 35.498,294.000 35.321 C 294.000 35.145,294.075 35.000,294.167 35.000 C 294.258 35.000,294.333 34.813,294.333 34.583 C 294.333 34.354,294.408 34.167,294.500 34.167 C 294.592 34.167,294.667 33.904,294.667 33.583 C 294.667 33.262,294.742 33.000,294.833 33.000 C 294.931 33.000,295.000 32.417,295.000 31.583 C 295.000 30.750,294.931 30.167,294.833 30.167 C 294.742 30.167,294.667 29.904,294.667 29.583 C 294.667 29.262,294.592 29.000,294.500 29.000 C 294.408 29.000,294.333 28.813,294.333 28.583 C 294.333 28.354,294.258 28.167,294.167 28.167 C 294.075 28.167,294.000 28.022,294.000 27.845 C 294.000 27.668,293.887 27.411,293.750 27.274 C 293.612 27.136,293.500 26.968,293.500 26.900 C 293.500 26.763,292.046 25.333,291.907 25.333 C 291.859 25.333,291.662 25.187,291.471 25.008 C 291.279 24.830,290.907 24.636,290.644 24.578 C 290.382 24.521,290.167 24.404,290.167 24.320 C 290.167 24.236,289.942 24.167,289.667 24.167 C 289.392 24.167,289.167 24.092,289.167 24.000 C 289.167 23.908,288.754 23.833,288.250 23.833 C 287.746 23.833,287.333 23.758,287.333 23.667 C 287.333 23.575,287.146 23.500,286.917 23.500 C 286.688 23.500,286.500 23.575,286.500 23.667 M315.333 23.667 C 315.333 23.758,314.996 23.833,314.583 23.833 C 314.171 23.833,313.833 23.908,313.833 24.000 C 313.833 24.092,313.646 24.167,313.417 24.167 C 313.188 24.167,313.000 24.230,313.000 24.307 C 313.000 24.428,312.288 24.833,312.075 24.833 C 312.034 24.833,312.000 24.606,312.000 24.328 L 312.000 23.823 310.042 23.870 L 308.083 23.917 308.083 31.583 L 308.083 39.250 310.042 39.297 L 312.000 39.344 312.000 35.089 C 312.000 32.363,312.060 30.833,312.167 30.833 C 312.258 30.833,312.333 30.545,312.333 30.192 C 312.333 29.142,313.169 27.833,313.840 27.833 C 314.020 27.833,314.167 27.758,314.167 27.667 C 314.167 27.575,314.500 27.500,314.907 27.500 C 315.314 27.500,315.693 27.575,315.750 27.667 C 315.807 27.758,315.987 27.833,316.151 27.833 C 316.543 27.833,317.167 28.383,317.167 28.728 C 317.167 28.878,317.242 29.000,317.333 29.000 C 317.425 29.000,317.500 29.188,317.500 29.417 C 317.500 29.646,317.575 29.833,317.667 29.833 C 317.774 29.833,317.833 31.528,317.833 34.583 L 317.833 39.333 319.750 39.333 L 321.667 39.333 321.667 34.500 C 321.667 31.389,321.726 29.667,321.833 29.667 C 321.925 29.667,322.000 29.517,322.000 29.333 C 322.000 29.150,322.075 29.000,322.167 29.000 C 322.258 29.000,322.333 28.882,322.333 28.738 C 322.333 28.357,322.740 28.010,323.324 27.894 C 323.604 27.838,323.833 27.726,323.833 27.646 C 323.833 27.566,324.171 27.500,324.583 27.500 C 324.996 27.500,325.333 27.575,325.333 27.667 C 325.333 27.758,325.480 27.833,325.659 27.833 C 326.080 27.833,326.833 28.587,326.833 29.008 C 326.833 29.187,326.908 29.333,327.000 29.333 C 327.107 29.333,327.167 31.111,327.167 34.333 L 327.167 39.333 329.167 39.333 L 331.167 39.333 331.167 33.417 C 331.167 29.583,331.108 27.500,331.000 27.500 C 330.908 27.500,330.833 27.313,330.833 27.085 C 330.833 26.850,330.688 26.579,330.500 26.461 C 330.317 26.347,330.167 26.122,330.167 25.961 C 330.167 25.394,328.554 24.167,327.808 24.167 C 327.638 24.167,327.500 24.092,327.500 24.000 C 327.500 23.908,327.087 23.833,326.583 23.833 C 326.079 23.833,325.667 23.758,325.667 23.667 C 325.667 23.575,325.479 23.500,325.250 23.500 C 325.021 23.500,324.833 23.575,324.833 23.667 C 324.833 23.758,324.421 23.833,323.917 23.833 C 323.412 23.833,323.000 23.908,323.000 24.000 C 323.000 24.092,322.775 24.167,322.500 24.167 C 322.225 24.167,322.000 24.237,322.000 24.322 C 322.000 24.408,321.859 24.522,321.686 24.577 C 321.513 24.632,321.133 24.905,320.841 25.185 L 320.309 25.692 319.800 25.096 C 319.520 24.768,319.150 24.500,318.979 24.500 C 318.807 24.500,318.667 24.425,318.667 24.333 C 318.667 24.242,318.517 24.167,318.333 24.167 C 318.150 24.167,318.000 24.092,318.000 24.000 C 318.000 23.908,317.587 23.833,317.083 23.833 C 316.579 23.833,316.167 23.758,316.167 23.667 C 316.167 23.575,315.979 23.500,315.750 23.500 C 315.521 23.500,315.333 23.575,315.333 23.667 M340.833 23.667 C 340.833 23.759,340.389 23.833,339.833 23.833 C 339.278 23.833,338.833 23.907,338.833 24.000 C 338.833 24.092,338.608 24.167,338.333 24.167 C 338.058 24.167,337.833 24.234,337.833 24.315 C 337.833 24.397,337.646 24.511,337.417 24.568 C 337.188 24.626,337.000 24.747,337.000 24.837 C 337.000 24.926,336.886 25.000,336.747 25.000 C 336.422 25.000,334.500 26.927,334.500 27.253 C 334.500 27.389,334.443 27.500,334.373 27.500 C 334.165 27.500,333.667 28.795,333.667 29.334 C 333.667 29.609,333.592 29.833,333.500 29.833 C 333.400 29.833,333.333 30.500,333.333 31.500 C 333.333 32.417,333.399 33.167,333.479 33.167 C 333.559 33.167,333.662 33.557,333.708 34.035 C 333.754 34.512,333.876 34.931,333.979 34.965 C 334.082 35.000,334.167 35.172,334.167 35.347 C 334.167 35.523,334.242 35.667,334.333 35.667 C 334.425 35.667,334.500 35.812,334.500 35.989 C 334.500 36.166,334.650 36.358,334.833 36.417 C 335.017 36.475,335.167 36.590,335.167 36.674 C 335.167 36.924,336.657 38.333,336.921 38.333 C 337.056 38.333,337.167 38.408,337.167 38.500 C 337.167 38.592,337.317 38.667,337.500 38.667 C 337.683 38.667,337.833 38.742,337.833 38.833 C 337.833 38.925,338.058 39.000,338.333 39.000 C 338.608 39.000,338.833 39.075,338.833 39.167 C 338.833 39.258,339.171 39.333,339.583 39.333 C 339.996 39.333,340.333 39.408,340.333 39.500 C 340.333 39.595,340.833 39.667,341.500 39.667 C 342.167 39.667,342.667 39.595,342.667 39.500 C 342.667 39.408,343.004 39.333,343.417 39.333 C 343.829 39.333,344.167 39.258,344.167 39.167 C 344.167 39.075,344.392 39.000,344.667 39.000 C 344.942 39.000,345.167 38.925,345.167 38.833 C 345.167 38.742,345.279 38.667,345.417 38.667 C 345.554 38.667,345.667 38.599,345.667 38.516 C 345.667 38.434,345.880 38.291,346.142 38.200 C 346.763 37.984,347.500 37.238,347.500 36.826 C 347.500 36.647,347.575 36.500,347.667 36.500 C 347.758 36.500,347.833 36.387,347.833 36.250 C 347.833 36.112,347.908 36.000,348.000 36.000 C 348.092 36.000,348.167 35.850,348.167 35.667 C 348.167 35.483,348.223 35.333,348.292 35.332 C 348.461 35.330,348.833 34.506,348.833 34.133 C 348.833 33.860,348.642 33.833,346.667 33.833 C 344.805 33.833,344.500 33.870,344.500 34.096 C 344.500 34.437,343.603 35.333,343.263 35.333 C 343.118 35.333,343.000 35.408,343.000 35.500 C 343.000 35.592,342.813 35.667,342.583 35.667 C 342.354 35.667,342.167 35.742,342.167 35.833 C 342.167 35.925,341.867 36.000,341.500 36.000 C 341.133 36.000,340.833 35.925,340.833 35.833 C 340.833 35.742,340.571 35.667,340.250 35.667 C 339.929 35.667,339.667 35.608,339.667 35.536 C 339.667 35.464,339.423 35.261,339.125 35.085 C 338.402 34.658,337.833 34.074,337.833 33.758 C 337.833 33.616,337.758 33.500,337.667 33.500 C 337.575 33.500,337.500 33.387,337.500 33.250 C 337.500 33.033,338.234 33.000,343.107 33.000 C 348.251 33.000,348.732 32.976,348.935 32.708 C 349.194 32.366,349.242 31.066,349.000 30.917 C 348.908 30.860,348.833 30.406,348.833 29.907 C 348.833 29.408,348.758 29.000,348.667 29.000 C 348.575 29.000,348.500 28.813,348.500 28.583 C 348.500 28.354,348.425 28.167,348.333 28.167 C 348.242 28.167,348.167 28.017,348.167 27.833 C 348.167 27.650,348.092 27.500,348.000 27.500 C 347.908 27.500,347.833 27.350,347.833 27.167 C 347.833 26.983,347.763 26.833,347.678 26.833 C 347.592 26.833,347.480 26.702,347.429 26.542 C 347.288 26.101,346.576 25.333,346.309 25.333 C 346.180 25.333,345.966 25.184,345.834 25.001 C 345.702 24.818,345.348 24.622,345.047 24.566 C 344.746 24.509,344.500 24.396,344.500 24.315 C 344.500 24.233,344.350 24.167,344.167 24.167 C 343.983 24.167,343.833 24.092,343.833 24.000 C 343.833 23.908,343.392 23.833,342.843 23.833 C 342.299 23.833,341.807 23.758,341.750 23.667 C 341.693 23.575,341.464 23.500,341.240 23.500 C 341.016 23.500,340.833 23.575,340.833 23.667 M367.000 23.667 C 367.000 23.758,366.587 23.833,366.083 23.833 C 365.579 23.833,365.167 23.908,365.167 24.000 C 365.167 24.092,364.979 24.167,364.750 24.167 C 364.521 24.167,364.333 24.242,364.333 24.333 C 364.333 24.425,364.201 24.500,364.038 24.500 C 363.876 24.500,363.578 24.669,363.377 24.875 C 362.131 26.149,361.833 26.524,361.833 26.814 C 361.833 26.993,361.743 27.169,361.632 27.206 C 361.136 27.371,361.525 30.833,362.041 30.833 C 362.110 30.833,362.167 30.932,362.167 31.053 C 362.167 31.279,362.901 32.000,363.131 32.000 C 363.202 32.000,363.368 32.150,363.500 32.333 C 363.638 32.525,363.931 32.667,364.190 32.667 C 364.437 32.667,364.664 32.743,364.695 32.836 C 364.726 32.929,365.258 33.052,365.876 33.110 C 366.494 33.168,367.000 33.279,367.000 33.357 C 367.000 33.436,367.412 33.500,367.917 33.500 C 368.421 33.500,368.833 33.575,368.833 33.667 C 368.833 33.758,369.058 33.833,369.333 33.833 C 369.608 33.833,369.833 33.908,369.833 34.000 C 369.833 34.092,369.946 34.167,370.083 34.167 C 370.221 34.167,370.333 34.273,370.333 34.403 C 370.333 34.533,370.425 34.669,370.537 34.707 C 370.764 34.782,369.969 35.667,369.674 35.667 C 369.578 35.667,369.500 35.742,369.500 35.833 C 369.500 35.927,369.028 36.000,368.417 36.000 C 367.806 36.000,367.333 35.927,367.333 35.833 C 367.333 35.742,367.155 35.667,366.937 35.667 C 366.490 35.667,365.167 34.483,365.167 34.084 C 365.167 33.875,364.834 33.833,363.167 33.833 C 361.223 33.833,361.167 33.844,361.167 34.197 C 361.167 34.669,361.529 35.667,361.700 35.667 C 361.773 35.667,361.833 35.818,361.833 36.002 C 361.833 36.658,363.176 38.333,363.701 38.333 C 363.866 38.333,364.000 38.408,364.000 38.500 C 364.000 38.592,364.150 38.667,364.333 38.667 C 364.517 38.667,364.667 38.742,364.667 38.833 C 364.667 38.925,364.854 39.000,365.083 39.000 C 365.313 39.000,365.500 39.075,365.500 39.167 C 365.500 39.258,365.758 39.333,366.073 39.333 C 366.389 39.333,366.693 39.408,366.750 39.500 C 366.807 39.592,367.407 39.667,368.083 39.667 C 368.760 39.667,369.360 39.592,369.417 39.500 C 369.473 39.408,369.853 39.333,370.260 39.333 C 370.667 39.333,371.000 39.258,371.000 39.167 C 371.000 39.075,371.113 39.000,371.250 39.000 C 371.387 39.000,371.500 38.925,371.500 38.833 C 371.500 38.742,371.650 38.667,371.833 38.667 C 372.017 38.667,372.167 38.592,372.167 38.500 C 372.167 38.408,372.304 38.333,372.472 38.333 C 372.827 38.333,373.667 37.455,373.667 37.085 C 373.667 36.946,373.742 36.833,373.833 36.833 C 373.925 36.833,374.000 36.721,374.000 36.583 C 374.000 36.446,374.075 36.333,374.167 36.333 C 374.268 36.333,374.333 35.611,374.333 34.500 C 374.333 33.389,374.268 32.667,374.167 32.667 C 374.075 32.667,374.000 32.552,374.000 32.411 C 374.000 32.108,373.078 31.167,372.781 31.167 C 372.667 31.167,372.465 31.017,372.333 30.833 C 372.201 30.650,371.922 30.500,371.713 30.500 C 371.504 30.500,371.333 30.425,371.333 30.333 C 371.333 30.242,371.113 30.167,370.843 30.167 C 370.574 30.167,370.312 30.101,370.262 30.020 C 370.213 29.939,369.458 29.820,368.586 29.754 C 367.714 29.689,367.000 29.568,367.000 29.484 C 367.000 29.401,366.772 29.333,366.492 29.333 C 365.947 29.333,364.911 28.502,365.296 28.373 C 365.408 28.336,365.500 28.231,365.500 28.141 C 365.500 27.859,365.960 27.500,366.321 27.500 C 366.511 27.500,366.667 27.425,366.667 27.333 C 366.667 27.242,367.000 27.167,367.407 27.167 C 367.814 27.167,368.193 27.242,368.250 27.333 C 368.307 27.425,368.536 27.500,368.760 27.500 C 368.984 27.500,369.167 27.570,369.167 27.655 C 369.167 27.740,369.335 27.834,369.542 27.863 C 369.783 27.898,369.936 28.051,369.970 28.292 C 369.999 28.498,370.093 28.667,370.178 28.667 C 370.264 28.667,370.333 28.817,370.333 29.000 C 370.333 29.315,370.444 29.333,372.333 29.333 L 374.333 29.333 374.333 28.750 C 374.333 28.429,374.258 28.167,374.167 28.167 C 374.075 28.167,374.000 28.017,374.000 27.833 C 374.000 27.650,373.925 27.500,373.833 27.500 C 373.742 27.500,373.667 27.350,373.667 27.167 C 373.667 26.983,373.592 26.833,373.500 26.833 C 373.408 26.833,373.333 26.654,373.333 26.434 C 373.333 25.975,372.495 25.000,372.100 25.000 C 371.953 25.000,371.833 24.926,371.833 24.837 C 371.833 24.747,371.646 24.626,371.417 24.568 C 371.188 24.511,371.000 24.397,371.000 24.315 C 371.000 24.234,370.775 24.167,370.500 24.167 C 370.225 24.167,370.000 24.092,370.000 24.000 C 370.000 23.908,369.587 23.833,369.083 23.833 C 368.579 23.833,368.167 23.758,368.167 23.667 C 368.167 23.575,367.904 23.500,367.583 23.500 C 367.262 23.500,367.000 23.575,367.000 23.667 M211.410 24.042 C 211.366 24.156,211.349 27.625,211.373 31.750 L 211.417 39.250 213.375 39.297 L 215.333 39.344 215.333 35.089 C 215.333 32.363,215.393 30.833,215.500 30.833 C 215.592 30.833,215.667 30.620,215.667 30.359 C 215.667 29.377,216.833 27.833,217.575 27.833 C 217.798 27.833,218.027 27.758,218.083 27.667 C 218.140 27.575,218.782 27.500,219.510 27.500 L 220.833 27.500 220.833 25.667 L 220.833 23.833 219.333 23.833 C 218.444 23.833,217.833 23.901,217.833 24.000 C 217.833 24.092,217.634 24.167,217.389 24.167 C 216.886 24.167,215.667 24.661,215.667 24.865 C 215.667 24.939,215.592 25.000,215.500 25.000 C 215.408 25.000,215.333 24.738,215.333 24.417 L 215.333 23.833 213.411 23.833 C 212.028 23.833,211.467 23.892,211.410 24.042 M297.167 31.583 L 297.167 39.333 299.083 39.333 L 301.000 39.333 301.000 34.917 C 301.000 32.083,301.060 30.500,301.167 30.500 C 301.258 30.500,301.333 30.349,301.333 30.164 C 301.333 29.455,302.684 27.833,303.275 27.833 C 303.480 27.833,303.693 27.758,303.750 27.667 C 303.807 27.575,304.449 27.500,305.177 27.500 L 306.500 27.500 306.500 25.667 L 306.500 23.833 305.000 23.833 C 304.111 23.833,303.500 23.901,303.500 24.000 C 303.500 24.092,303.237 24.167,302.917 24.167 C 302.596 24.167,302.333 24.242,302.333 24.333 C 302.333 24.425,302.189 24.500,302.012 24.500 C 301.835 24.500,301.578 24.613,301.440 24.750 C 301.072 25.118,301.000 25.063,301.000 24.417 L 301.000 23.833 299.083 23.833 L 297.167 23.833 297.167 31.583 M351.167 31.583 L 351.167 39.333 353.167 39.333 L 355.167 39.333 355.167 35.260 C 355.167 32.724,355.230 31.147,355.333 31.083 C 355.425 31.027,355.500 30.734,355.500 30.432 C 355.500 29.345,356.625 27.833,357.434 27.833 C 357.654 27.833,357.833 27.758,357.833 27.667 C 357.833 27.569,358.417 27.500,359.250 27.500 L 360.667 27.500 360.667 25.667 L 360.667 23.833 359.167 23.833 C 358.278 23.833,357.667 23.901,357.667 24.000 C 357.667 24.092,357.367 24.167,357.000 24.167 C 356.633 24.167,356.333 24.234,356.333 24.315 C 356.333 24.397,356.146 24.511,355.917 24.568 C 355.688 24.626,355.500 24.747,355.500 24.837 C 355.500 24.926,355.425 25.000,355.333 25.000 C 355.242 25.000,355.167 24.738,355.167 24.417 L 355.167 23.833 353.167 23.833 L 351.167 23.833 351.167 31.583 M90.476 26.684 C 90.557 26.921,91.646 28.000,91.804 28.000 C 91.977 28.000,92.334 29.380,92.332 30.044 C 92.330 31.464,91.142 33.196,90.010 33.431 C 89.775 33.480,89.453 33.591,89.294 33.677 C 88.915 33.882,88.380 33.877,88.250 33.667 C 88.193 33.575,87.999 33.500,87.818 33.500 C 87.217 33.500,85.833 32.411,85.833 31.938 C 85.833 31.804,85.740 31.663,85.625 31.625 C 85.319 31.523,85.331 28.139,85.638 28.037 C 85.759 27.997,86.113 27.710,86.424 27.399 C 86.735 27.088,87.066 26.833,87.161 26.833 C 87.256 26.833,87.333 26.764,87.333 26.678 C 87.333 26.314,90.352 26.320,90.476 26.684 M175.130 26.641 C 175.166 26.747,175.301 26.833,175.430 26.833 C 175.798 26.833,177.000 28.088,177.000 28.471 C 177.000 28.659,177.075 28.860,177.167 28.917 C 177.376 29.046,177.388 31.167,177.180 31.167 C 177.096 31.167,176.981 31.375,176.925 31.631 C 176.737 32.483,175.495 33.500,174.641 33.500 C 174.472 33.500,174.333 33.575,174.333 33.667 C 174.333 33.758,174.108 33.833,173.833 33.833 C 173.558 33.833,173.333 33.758,173.333 33.667 C 173.333 33.575,173.209 33.500,173.056 33.500 C 172.690 33.500,171.500 32.971,171.500 32.809 C 171.500 32.739,171.313 32.494,171.083 32.265 C 170.854 32.036,170.667 31.770,170.667 31.674 C 170.667 31.578,170.592 31.500,170.500 31.500 C 170.402 31.500,170.333 30.917,170.333 30.083 C 170.333 29.250,170.402 28.667,170.500 28.667 C 170.592 28.667,170.667 28.535,170.667 28.373 C 170.667 28.212,170.817 27.987,171.000 27.872 C 171.183 27.758,171.333 27.552,171.333 27.415 C 171.333 27.279,171.418 27.167,171.522 27.167 C 171.626 27.167,171.835 27.023,171.988 26.848 C 172.421 26.348,174.977 26.181,175.130 26.641 M341.833 27.333 C 341.833 27.425,341.972 27.500,342.141 27.500 C 342.580 27.500,343.533 27.998,343.872 28.404 C 344.986 29.739,345.141 29.667,341.167 29.667 C 337.264 29.667,337.335 29.696,338.427 28.538 C 339.022 27.907,339.712 27.500,340.186 27.500 C 340.359 27.500,340.500 27.425,340.500 27.333 C 340.500 27.242,340.800 27.167,341.167 27.167 C 341.533 27.167,341.833 27.242,341.833 27.333 M287.667 27.667 C 287.667 27.758,287.882 27.833,288.146 27.833 C 288.410 27.833,288.719 27.946,288.833 28.083 C 288.947 28.221,289.112 28.333,289.199 28.333 C 289.423 28.333,289.833 28.771,289.833 29.010 C 289.833 29.121,290.002 29.357,290.208 29.536 C 290.652 29.921,290.796 33.318,290.375 33.458 C 290.260 33.497,290.167 33.637,290.167 33.771 C 290.167 34.087,289.491 34.761,289.028 34.908 C 288.829 34.971,288.667 35.092,288.667 35.178 C 288.667 35.263,288.442 35.333,288.167 35.333 C 287.892 35.333,287.667 35.408,287.667 35.500 C 287.667 35.592,287.254 35.667,286.750 35.667 C 286.246 35.667,285.833 35.592,285.833 35.500 C 285.833 35.408,285.680 35.333,285.493 35.333 C 285.125 35.333,284.933 35.201,284.116 34.384 C 283.299 33.567,283.167 33.375,283.167 33.007 C 283.167 32.820,283.092 32.667,283.000 32.667 C 282.906 32.667,282.833 32.194,282.833 31.583 C 282.833 30.972,282.906 30.500,283.000 30.500 C 283.092 30.500,283.167 30.328,283.167 30.119 C 283.167 29.575,284.665 28.025,285.316 27.895 C 285.601 27.838,285.833 27.726,285.833 27.646 C 285.833 27.566,286.246 27.500,286.750 27.500 C 287.254 27.500,287.667 27.575,287.667 27.667 M231.167 33.583 C 231.167 33.904,231.092 34.167,231.000 34.167 C 230.908 34.167,230.833 34.277,230.833 34.411 C 230.833 34.737,229.912 35.667,229.589 35.667 C 229.448 35.667,229.333 35.742,229.333 35.833 C 229.333 35.932,228.722 36.000,227.833 36.000 C 226.944 36.000,226.333 35.932,226.333 35.833 C 226.333 35.742,226.215 35.667,226.071 35.667 C 225.772 35.667,225.333 35.277,225.333 35.012 C 225.333 34.914,225.258 34.833,225.167 34.833 C 224.861 34.833,224.995 34.323,225.409 33.909 C 225.634 33.684,225.934 33.500,226.076 33.500 C 226.217 33.500,226.333 33.430,226.333 33.344 C 226.333 33.124,226.968 33.054,229.208 33.025 L 231.167 33.000 231.167 33.583 " stroke="none" fill="#343c44" fill-rule="evenodd"></path></g></svg>
